<mxfile host="Electron" modified="2023-11-16T16:50:47.246Z" agent="Mozilla/5.0 (Windows NT 10.0; Win64; x64) AppleWebKit/537.36 (KHTML, like Gecko) draw.io/22.0.2 Chrome/114.0.5735.289 Electron/25.8.4 Safari/537.36" etag="-P3KscAWtJFtW22U_jWX" version="22.0.2" type="device">
  <diagram name="Page-1" id="VwWqpEZCl3_MJg4LyqSk">
    <mxGraphModel dx="1419" dy="819" grid="1" gridSize="10" guides="1" tooltips="1" connect="1" arrows="1" fold="1" page="0" pageScale="1" pageWidth="850" pageHeight="1100" math="0" shadow="0">
      <root>
        <mxCell id="0" />
        <mxCell id="1" parent="0" />
        <mxCell id="5DMnv8la4XE6s-sfl3l8-56" value="" style="rounded=0;whiteSpace=wrap;html=1;" parent="1" vertex="1">
          <mxGeometry y="120" width="960" height="680" as="geometry" />
        </mxCell>
        <mxCell id="5DMnv8la4XE6s-sfl3l8-34" value="" style="endArrow=none;dashed=1;html=1;rounded=0;entryX=0.5;entryY=1;entryDx=0;entryDy=0;fillColor=#fff2cc;strokeColor=#d6b656;" parent="1" edge="1">
          <mxGeometry width="50" height="50" relative="1" as="geometry">
            <mxPoint x="339.98999999999995" y="760" as="sourcePoint" />
            <mxPoint x="339.71" y="220" as="targetPoint" />
          </mxGeometry>
        </mxCell>
        <mxCell id="9jVZdD6yZtyIO2AFlomi-15" value="" style="endArrow=none;dashed=1;html=1;rounded=0;entryX=0.5;entryY=1;entryDx=0;entryDy=0;fillColor=#d5e8d4;strokeColor=#82b366;" parent="1" edge="1">
          <mxGeometry width="50" height="50" relative="1" as="geometry">
            <mxPoint x="660" y="760" as="sourcePoint" />
            <mxPoint x="659.72" y="220" as="targetPoint" />
          </mxGeometry>
        </mxCell>
        <mxCell id="5DMnv8la4XE6s-sfl3l8-31" value="" style="endArrow=none;dashed=1;html=1;rounded=0;entryX=0.5;entryY=1;entryDx=0;entryDy=0;fillColor=#dae8fc;strokeColor=#6c8ebf;" parent="1" edge="1">
          <mxGeometry width="50" height="50" relative="1" as="geometry">
            <mxPoint x="500.91999999999996" y="760" as="sourcePoint" />
            <mxPoint x="500.64" y="220" as="targetPoint" />
          </mxGeometry>
        </mxCell>
        <mxCell id="5DMnv8la4XE6s-sfl3l8-32" value="" style="endArrow=none;dashed=1;html=1;rounded=0;entryX=0.5;entryY=1;entryDx=0;entryDy=0;fillColor=#e1d5e7;strokeColor=#9673a6;" parent="1" edge="1">
          <mxGeometry width="50" height="50" relative="1" as="geometry">
            <mxPoint x="819.99" y="760" as="sourcePoint" />
            <mxPoint x="819.71" y="220" as="targetPoint" />
          </mxGeometry>
        </mxCell>
        <mxCell id="5DMnv8la4XE6s-sfl3l8-33" value="" style="endArrow=none;dashed=1;html=1;rounded=0;entryX=0.5;entryY=1;entryDx=0;entryDy=0;fillColor=#ffe6cc;strokeColor=#d79b00;" parent="1" edge="1">
          <mxGeometry width="50" height="50" relative="1" as="geometry">
            <mxPoint x="179.98999999999995" y="760" as="sourcePoint" />
            <mxPoint x="179.70999999999998" y="220" as="targetPoint" />
          </mxGeometry>
        </mxCell>
        <mxCell id="9jVZdD6yZtyIO2AFlomi-1" value="AMC Main Task" style="rounded=0;whiteSpace=wrap;html=1;fillColor=#ffe6cc;strokeColor=#d79b00;" parent="1" vertex="1">
          <mxGeometry x="120" y="160" width="120" height="60" as="geometry" />
        </mxCell>
        <mxCell id="9jVZdD6yZtyIO2AFlomi-2" value="AXC Proxy" style="rounded=0;whiteSpace=wrap;html=1;fillColor=#fff2cc;strokeColor=#d6b656;" parent="1" vertex="1">
          <mxGeometry x="280" y="160" width="120" height="60" as="geometry" />
        </mxCell>
        <mxCell id="9jVZdD6yZtyIO2AFlomi-3" value="OSAL" style="rounded=0;whiteSpace=wrap;html=1;fillColor=#d5e8d4;strokeColor=#82b366;" parent="1" vertex="1">
          <mxGeometry x="600" y="160" width="120" height="60" as="geometry" />
        </mxCell>
        <mxCell id="9jVZdD6yZtyIO2AFlomi-4" value="FAL" style="rounded=0;whiteSpace=wrap;html=1;fillColor=#dae8fc;strokeColor=#6c8ebf;" parent="1" vertex="1">
          <mxGeometry x="440" y="160" width="120" height="60" as="geometry" />
        </mxCell>
        <mxCell id="9jVZdD6yZtyIO2AFlomi-5" value="" style="rounded=0;whiteSpace=wrap;html=1;fillColor=#ffe6cc;strokeColor=#d79b00;" parent="1" vertex="1">
          <mxGeometry x="170" y="260" width="20" height="440" as="geometry" />
        </mxCell>
        <mxCell id="9jVZdD6yZtyIO2AFlomi-10" value="" style="rounded=0;whiteSpace=wrap;html=1;fillColor=#fff2cc;strokeColor=#d6b656;" parent="1" vertex="1">
          <mxGeometry x="330" y="260" width="20" height="440" as="geometry" />
        </mxCell>
        <mxCell id="9jVZdD6yZtyIO2AFlomi-11" value="" style="rounded=0;whiteSpace=wrap;html=1;fillColor=#dae8fc;strokeColor=#6c8ebf;" parent="1" vertex="1">
          <mxGeometry x="490" y="520" width="20" height="100" as="geometry" />
        </mxCell>
        <mxCell id="9jVZdD6yZtyIO2AFlomi-12" value="" style="rounded=0;whiteSpace=wrap;html=1;fillColor=#d5e8d4;strokeColor=#82b366;" parent="1" vertex="1">
          <mxGeometry x="650" y="260" width="20" height="180" as="geometry" />
        </mxCell>
        <mxCell id="5DMnv8la4XE6s-sfl3l8-1" value="" style="endArrow=classic;html=1;rounded=0;shadow=0;" parent="1" edge="1">
          <mxGeometry width="50" height="50" relative="1" as="geometry">
            <mxPoint x="40" y="260" as="sourcePoint" />
            <mxPoint x="170" y="260" as="targetPoint" />
          </mxGeometry>
        </mxCell>
        <mxCell id="5DMnv8la4XE6s-sfl3l8-4" value="&lt;font style=&quot;font-size: 10px;&quot;&gt;iInitProxies()&lt;/font&gt;" style="text;html=1;align=left;verticalAlign=middle;resizable=0;points=[];autosize=1;strokeColor=none;fillColor=none;" parent="1" vertex="1">
          <mxGeometry x="40" y="230" width="80" height="30" as="geometry" />
        </mxCell>
        <mxCell id="5DMnv8la4XE6s-sfl3l8-9" value="" style="endArrow=classic;html=1;rounded=0;shadow=0;entryX=-0.025;entryY=0.046;entryDx=0;entryDy=0;entryPerimeter=0;" parent="1" target="9jVZdD6yZtyIO2AFlomi-10" edge="1">
          <mxGeometry width="50" height="50" relative="1" as="geometry">
            <mxPoint x="190" y="280" as="sourcePoint" />
            <mxPoint x="320" y="280" as="targetPoint" />
          </mxGeometry>
        </mxCell>
        <mxCell id="5DMnv8la4XE6s-sfl3l8-10" value="&lt;font style=&quot;font-size: 10px;&quot;&gt;iAXC_Initialise()&lt;/font&gt;" style="text;html=1;align=center;verticalAlign=middle;resizable=0;points=[];autosize=1;strokeColor=none;fillColor=none;" parent="1" vertex="1">
          <mxGeometry x="215" y="250" width="90" height="30" as="geometry" />
        </mxCell>
        <mxCell id="5DMnv8la4XE6s-sfl3l8-13" value="" style="endArrow=classic;html=1;rounded=0;shadow=0;entryX=-0.025;entryY=0.046;entryDx=0;entryDy=0;entryPerimeter=0;" parent="1" edge="1">
          <mxGeometry width="50" height="50" relative="1" as="geometry">
            <mxPoint x="190" y="440" as="sourcePoint" />
            <mxPoint x="330" y="440" as="targetPoint" />
          </mxGeometry>
        </mxCell>
        <mxCell id="5DMnv8la4XE6s-sfl3l8-14" value="&lt;font style=&quot;font-size: 10px;&quot;&gt;iAXC_BindCallback()&lt;/font&gt;" style="text;html=1;align=center;verticalAlign=middle;resizable=0;points=[];autosize=1;strokeColor=none;fillColor=none;" parent="1" vertex="1">
          <mxGeometry x="200" y="410" width="120" height="30" as="geometry" />
        </mxCell>
        <mxCell id="5DMnv8la4XE6s-sfl3l8-15" value="" style="endArrow=classic;html=1;rounded=0;shadow=0;entryX=-0.025;entryY=0.046;entryDx=0;entryDy=0;entryPerimeter=0;" parent="1" edge="1">
          <mxGeometry width="50" height="50" relative="1" as="geometry">
            <mxPoint x="190" y="520" as="sourcePoint" />
            <mxPoint x="330" y="520" as="targetPoint" />
          </mxGeometry>
        </mxCell>
        <mxCell id="5DMnv8la4XE6s-sfl3l8-17" value="&lt;font style=&quot;font-size: 10px;&quot;&gt;iAXC_AddExternalDevice()&lt;/font&gt;" style="text;html=1;align=center;verticalAlign=middle;resizable=0;points=[];autosize=1;strokeColor=none;fillColor=none;" parent="1" vertex="1">
          <mxGeometry x="190" y="490" width="140" height="30" as="geometry" />
        </mxCell>
        <mxCell id="5DMnv8la4XE6s-sfl3l8-18" value="" style="endArrow=classic;html=1;rounded=0;shadow=0;entryX=-0.064;entryY=0.113;entryDx=0;entryDy=0;entryPerimeter=0;exitX=1.002;exitY=0.113;exitDx=0;exitDy=0;exitPerimeter=0;" parent="1" edge="1">
          <mxGeometry width="50" height="50" relative="1" as="geometry">
            <mxPoint x="350.67999999999995" y="299.72" as="sourcePoint" />
            <mxPoint x="649.3599999999998" y="299.72" as="targetPoint" />
          </mxGeometry>
        </mxCell>
        <mxCell id="5DMnv8la4XE6s-sfl3l8-19" value="&lt;font style=&quot;font-size: 10px;&quot;&gt;iOSAL_Mutex_Create()&lt;/font&gt;" style="text;html=1;align=center;verticalAlign=middle;resizable=0;points=[];autosize=1;strokeColor=none;fillColor=none;" parent="1" vertex="1">
          <mxGeometry x="360.64" y="270" width="130" height="30" as="geometry" />
        </mxCell>
        <mxCell id="5DMnv8la4XE6s-sfl3l8-22" value="" style="endArrow=classic;html=1;rounded=0;shadow=0;exitX=1.002;exitY=0.113;exitDx=0;exitDy=0;exitPerimeter=0;dashed=1;" parent="1" edge="1">
          <mxGeometry width="50" height="50" relative="1" as="geometry">
            <mxPoint x="650" y="330" as="sourcePoint" />
            <mxPoint x="350" y="331" as="targetPoint" />
          </mxGeometry>
        </mxCell>
        <mxCell id="5DMnv8la4XE6s-sfl3l8-23" value="&lt;font style=&quot;font-size: 10px;&quot;&gt;OK or ERROR&lt;/font&gt;" style="text;html=1;align=center;verticalAlign=middle;resizable=0;points=[];autosize=1;strokeColor=none;fillColor=none;" parent="1" vertex="1">
          <mxGeometry x="545" y="300" width="90" height="30" as="geometry" />
        </mxCell>
        <mxCell id="5DMnv8la4XE6s-sfl3l8-24" value="" style="endArrow=classic;html=1;rounded=0;shadow=0;entryX=-0.064;entryY=0.113;entryDx=0;entryDy=0;entryPerimeter=0;exitX=1.002;exitY=0.113;exitDx=0;exitDy=0;exitPerimeter=0;" parent="1" edge="1">
          <mxGeometry width="50" height="50" relative="1" as="geometry">
            <mxPoint x="351.31999999999994" y="369.31000000000006" as="sourcePoint" />
            <mxPoint x="649.9999999999998" y="369.31000000000006" as="targetPoint" />
          </mxGeometry>
        </mxCell>
        <mxCell id="5DMnv8la4XE6s-sfl3l8-25" value="&lt;font style=&quot;font-size: 10px;&quot;&gt;iOSAL_Task_Create()&lt;/font&gt;" style="text;html=1;align=center;verticalAlign=middle;resizable=0;points=[];autosize=1;strokeColor=none;fillColor=none;" parent="1" vertex="1">
          <mxGeometry x="360" y="340.00000000000006" width="120" height="30" as="geometry" />
        </mxCell>
        <mxCell id="5DMnv8la4XE6s-sfl3l8-26" value="" style="endArrow=classic;html=1;rounded=0;shadow=0;exitX=1.002;exitY=0.113;exitDx=0;exitDy=0;exitPerimeter=0;dashed=1;" parent="1" edge="1">
          <mxGeometry width="50" height="50" relative="1" as="geometry">
            <mxPoint x="650" y="400" as="sourcePoint" />
            <mxPoint x="350" y="401" as="targetPoint" />
          </mxGeometry>
        </mxCell>
        <mxCell id="5DMnv8la4XE6s-sfl3l8-27" value="&lt;font style=&quot;font-size: 10px;&quot;&gt;OK or ERROR&lt;/font&gt;" style="text;html=1;align=center;verticalAlign=middle;resizable=0;points=[];autosize=1;strokeColor=none;fillColor=none;" parent="1" vertex="1">
          <mxGeometry x="545" y="370" width="90" height="30" as="geometry" />
        </mxCell>
        <mxCell id="5DMnv8la4XE6s-sfl3l8-28" value="EVL" style="rounded=0;whiteSpace=wrap;html=1;fillColor=#e1d5e7;strokeColor=#9673a6;" parent="1" vertex="1">
          <mxGeometry x="760" y="160" width="120" height="60" as="geometry" />
        </mxCell>
        <mxCell id="5DMnv8la4XE6s-sfl3l8-29" value="" style="rounded=0;whiteSpace=wrap;html=1;fillColor=#e1d5e7;strokeColor=#9673a6;" parent="1" vertex="1">
          <mxGeometry x="810" y="440" width="20" height="80" as="geometry" />
        </mxCell>
        <mxCell id="5DMnv8la4XE6s-sfl3l8-35" value="" style="endArrow=classic;html=1;rounded=0;shadow=0;exitX=1.002;exitY=0.113;exitDx=0;exitDy=0;exitPerimeter=0;entryX=0;entryY=0.25;entryDx=0;entryDy=0;" parent="1" target="5DMnv8la4XE6s-sfl3l8-29" edge="1">
          <mxGeometry width="50" height="50" relative="1" as="geometry">
            <mxPoint x="349.99999999999994" y="460" as="sourcePoint" />
            <mxPoint x="700" y="460" as="targetPoint" />
          </mxGeometry>
        </mxCell>
        <mxCell id="5DMnv8la4XE6s-sfl3l8-37" value="&lt;font style=&quot;font-size: 10px;&quot;&gt;iEVL_BindCallback()&lt;/font&gt;" style="text;html=1;align=center;verticalAlign=middle;resizable=0;points=[];autosize=1;strokeColor=none;fillColor=none;" parent="1" vertex="1">
          <mxGeometry x="355" y="430" width="120" height="30" as="geometry" />
        </mxCell>
        <mxCell id="5DMnv8la4XE6s-sfl3l8-38" value="" style="endArrow=classic;html=1;rounded=0;shadow=0;exitX=1.002;exitY=0.113;exitDx=0;exitDy=0;exitPerimeter=0;dashed=1;entryX=1.016;entryY=0.525;entryDx=0;entryDy=0;entryPerimeter=0;" parent="1" target="9jVZdD6yZtyIO2AFlomi-10" edge="1">
          <mxGeometry width="50" height="50" relative="1" as="geometry">
            <mxPoint x="810" y="490" as="sourcePoint" />
            <mxPoint x="360" y="491" as="targetPoint" />
          </mxGeometry>
        </mxCell>
        <mxCell id="5DMnv8la4XE6s-sfl3l8-39" value="&lt;font style=&quot;font-size: 10px;&quot;&gt;OK or ERROR&lt;/font&gt;" style="text;html=1;align=center;verticalAlign=middle;resizable=0;points=[];autosize=1;strokeColor=none;fillColor=none;" parent="1" vertex="1">
          <mxGeometry x="715" y="460" width="90" height="30" as="geometry" />
        </mxCell>
        <mxCell id="5DMnv8la4XE6s-sfl3l8-42" value="&lt;font style=&quot;font-size: 10px;&quot;&gt;Called x5&lt;br&gt;(One for each device&amp;nbsp;handle)&lt;/font&gt;" style="text;html=1;align=center;verticalAlign=middle;resizable=0;points=[];autosize=1;strokeColor=none;fillColor=none;" parent="1" vertex="1">
          <mxGeometry x="185" y="530" width="150" height="40" as="geometry" />
        </mxCell>
        <mxCell id="5DMnv8la4XE6s-sfl3l8-43" value="" style="endArrow=classic;html=1;rounded=0;shadow=0;exitX=1.002;exitY=0.113;exitDx=0;exitDy=0;exitPerimeter=0;" parent="1" edge="1">
          <mxGeometry width="50" height="50" relative="1" as="geometry">
            <mxPoint x="349.99999999999994" y="540" as="sourcePoint" />
            <mxPoint x="490" y="540" as="targetPoint" />
          </mxGeometry>
        </mxCell>
        <mxCell id="5DMnv8la4XE6s-sfl3l8-44" value="&lt;font style=&quot;font-size: 10px;&quot;&gt;pxExDevIf-&amp;gt;open(&amp;nbsp;)&lt;/font&gt;" style="text;html=1;align=center;verticalAlign=middle;resizable=0;points=[];autosize=1;strokeColor=none;fillColor=none;" parent="1" vertex="1">
          <mxGeometry x="365" y="510" width="110" height="30" as="geometry" />
        </mxCell>
        <mxCell id="5DMnv8la4XE6s-sfl3l8-45" value="" style="endArrow=classic;html=1;rounded=0;shadow=0;exitX=1.002;exitY=0.113;exitDx=0;exitDy=0;exitPerimeter=0;dashed=1;entryX=0.005;entryY=1.009;entryDx=0;entryDy=0;entryPerimeter=0;" parent="1" target="5DMnv8la4XE6s-sfl3l8-48" edge="1">
          <mxGeometry width="50" height="50" relative="1" as="geometry">
            <mxPoint x="490" y="590" as="sourcePoint" />
            <mxPoint x="360" y="590" as="targetPoint" />
          </mxGeometry>
        </mxCell>
        <mxCell id="5DMnv8la4XE6s-sfl3l8-48" value="&lt;font style=&quot;font-size: 10px;&quot;&gt;FW_IF_ERRORS_NONE&lt;br&gt;or error code&lt;br&gt;&lt;/font&gt;" style="text;html=1;align=center;verticalAlign=middle;resizable=0;points=[];autosize=1;strokeColor=none;fillColor=none;" parent="1" vertex="1">
          <mxGeometry x="350" y="550" width="140" height="40" as="geometry" />
        </mxCell>
        <mxCell id="5DMnv8la4XE6s-sfl3l8-49" value="" style="endArrow=classic;html=1;rounded=0;shadow=0;entryX=1.02;entryY=0.955;entryDx=0;entryDy=0;entryPerimeter=0;" parent="1" target="9jVZdD6yZtyIO2AFlomi-10" edge="1">
          <mxGeometry width="50" height="50" relative="1" as="geometry">
            <mxPoint x="350" y="640" as="sourcePoint" />
            <mxPoint x="369" y="680" as="targetPoint" />
            <Array as="points">
              <mxPoint x="430" y="640" />
              <mxPoint x="430" y="680" />
            </Array>
          </mxGeometry>
        </mxCell>
        <mxCell id="5DMnv8la4XE6s-sfl3l8-52" value="&lt;font style=&quot;font-size: 10px;&quot;&gt;Allocate mem for new QSFP struct, &lt;br&gt;and add into beginning of private linked list&lt;/font&gt;" style="text;html=1;align=left;verticalAlign=middle;resizable=0;points=[];autosize=1;strokeColor=none;fillColor=none;" parent="1" vertex="1">
          <mxGeometry x="440" y="640" width="210" height="40" as="geometry" />
        </mxCell>
      </root>
    </mxGraphModel>
  </diagram>
</mxfile>
